<?xml version="1.0" encoding="UTF-8"?>
<svg width="128" height="128" viewBox="0 0 128 128"
    xmlns="http://www.w3.org/2000/svg">
    <!-- Background circle -->
    <circle cx="64" cy="64" r="60" fill="#24292e"/>

    <!-- GitHub octocat head -->
    <path d="M64 30c-18.8 0-34 15.2-34 34 0 15 9.7 27.7 23.2 32.2 1.7.3 2.3-.7 2.3-1.6v-6.1c-9.4 2-11.4-4.5-11.4-4.5-1.5-3.9-3.7-4.9-3.7-4.9-3-2.1.2-2 .2-2 3.3.2 5.1 3.4 5.1 3.4 3 5.1 7.8 3.6 9.7 2.8.3-2.1 1.2-3.6 2.1-4.4-7.3-.8-15-3.7-15-16.3 0-3.6 1.3-6.5 3.4-8.8-.3-.8-1.5-4.1.3-8.6 0 0 2.8-.9 9.2 3.4 2.7-.7 5.5-1.1 8.4-1.1 2.9 0 5.7.4 8.4 1.1 6.4-4.3 9.2-3.4 9.2-3.4 1.8 4.5.6 7.8.3 8.6 2.1 2.3 3.4 5.2 3.4 8.8 0 12.7-7.7 15.5-15.1 16.3 1.2 1 2.2 3 2.2 6.1v9c0 .9.6 1.9 2.3 1.6C88.3 91.7 98 79 98 64c0-18.8-15.2-34-34-34z" fill="#ffffff"/>

    <!-- Book/Wiki symbol -->
    <path d="M64 40c-13.3 0-24 10.7-24 24s10.7 24 24 24 24-10.7 24-24-10.7-24-24-24zm0 40c-8.8 0-16-7.2-16-16s7.2-16 16-16 16 7.2 16 16-7.2 16-16 16z" fill="#ffffff"/>
    <path d="M64 48c-8.8 0-16 7.2-16 16s7.2 16 16 16 16-7.2 16-16-7.2-16-16-16zm0 24c-4.4 0-8-3.6-8-8s3.6-8 8-8 8 3.6 8 8-3.6 8-8 8z" fill="#24292e"/>
</svg> 